<svg width="150" height="150" version="1.1" xmlns="http://www.w3.org/2000/svg">
    <path d="m45 60a15 15 0 0 0-15 15 15 15 0 0 0 15 15 15 15 0 0 0 15-15 15 15 0 0 0-15-15zm60 0a15 15 0 0 0-15 15 15 15 0 0 0 15 15 15 15 0 0 0 15-15 15 15 0 0 0-15-15z"/>
    <path d="m0 0v70h10a25 25 0 0 1 25-25h35v60h-35a25 25 0 0 1-25-25h-10v70h10a25 25 0 0 1 25-25h80a25 25 0 0 1 25 25h10v-70h-10a25 25 0 0 1-25 25h-35v-60h35a25 25 0 0 1 25 25h10v-70h-10a25 25 0 0 1-25 25h-80a25 25 0 0 1-25-25h-10z" fill="#00712c"/>
</svg>
